<svg width="35" height="35" viewBox="0 0 35 35" fill="none" xmlns="http://www.w3.org/2000/svg">
<path d="M17.5 1.40002C8.61796 1.40002 1.40002 8.61796 1.40002 17.5C1.40002 26.3821 8.61796 33.6 17.5 33.6C26.3821 33.6 33.6 26.3821 33.6 17.5C33.6 8.61796 26.3821 1.40002 17.5 1.40002ZM17.5 2.80002C25.6252 2.80002 32.2 9.37489 32.2 17.5C32.2 17.55 32.1964 17.5992 32.1959 17.649C31.7482 17.6077 31.2309 17.5685 30.5731 17.5451C29.643 17.5122 28.4706 17.5217 27.1414 17.5875C27.1907 17.2443 27.2253 16.8962 27.2262 16.5389C27.294 15.2281 26.8538 14.0017 26.1379 12.9186C26.3109 12.321 26.5137 11.5607 26.5645 10.6983C26.6223 9.71527 26.5374 8.62526 25.7483 7.8887L25.5459 7.70003H25.2698C23.3916 7.70003 22.106 8.48628 21.3199 9.1096C20.1849 8.67025 18.9086 8.40003 17.5 8.40003C16.0835 8.40003 14.7949 8.67403 13.6131 9.11234C12.8275 8.48871 11.5408 7.70003 9.66058 7.70003H9.38577L9.18343 7.88734C8.4147 8.60115 8.34388 9.66126 8.39183 10.6395C8.43411 11.5021 8.62524 12.2865 8.79515 12.9131C8.06717 14.0174 7.6303 15.2754 7.6303 16.5198C7.6303 16.8779 7.66361 17.2271 7.71234 17.5711C6.44831 17.5125 5.3215 17.5012 4.42699 17.5328C3.7692 17.5561 3.25184 17.595 2.80413 17.6367C2.80371 17.591 2.80003 17.5459 2.80003 17.5C2.80003 9.3749 9.37489 2.80002 17.5 2.80002ZM10.0776 9.19163C11.4899 9.32545 12.5524 9.9561 13.0444 10.3934L13.3725 10.6832L13.7772 10.5178C14.8842 10.062 16.1189 9.80002 17.5 9.80002C18.8811 9.80002 20.1162 10.0633 21.1395 10.511L21.5496 10.6914L21.8846 10.3934C22.3767 9.95596 23.4411 9.32512 24.8541 9.19163C25.042 9.50311 25.2053 9.94609 25.1658 10.6162C25.1187 11.4182 24.9041 12.2918 24.742 12.8106L24.6367 13.1483L24.8459 13.434C25.5386 14.3785 25.8917 15.4007 25.8317 16.4815L25.8303 16.5006V16.5198C25.8303 18.2666 25.2013 19.6647 23.8616 20.7006C22.5219 21.7366 20.4069 22.4 17.4303 22.4C14.4537 22.4 12.3374 21.7366 10.9977 20.7006C9.65797 19.6647 9.0303 18.2666 9.0303 16.5198C9.0303 15.4945 9.40055 14.3665 10.0844 13.434L10.2895 13.1551L10.1911 12.8229C10.0288 12.2714 9.83001 11.3779 9.79046 10.5711C9.75757 9.90008 9.91637 9.47595 10.0776 9.19163ZM6.21936 18.2151C6.71405 18.2214 7.28105 18.2481 7.84905 18.2766C7.90333 18.4948 7.96521 18.7095 8.04046 18.9192C5.72531 18.968 3.99334 19.2008 2.92581 19.4004C2.88068 19.0502 2.84473 18.697 2.82464 18.3395C3.61358 18.2646 4.72572 18.196 6.21936 18.2151ZM28.7807 18.226C30.2733 18.207 31.385 18.2757 32.174 18.3504C32.154 18.7028 32.1186 19.051 32.0742 19.3963C30.9686 19.1935 29.1898 18.9607 26.8147 18.9233C26.8884 18.7178 26.9498 18.5068 27.0033 18.293C27.6299 18.2594 28.2412 18.2328 28.7807 18.226ZM8.3385 19.6137C8.75622 20.4508 9.35309 21.1981 10.1418 21.808C11.2202 22.6419 12.6222 23.2245 14.3336 23.5362C14.1097 23.7662 13.9061 24.0188 13.7252 24.2854L13.6828 24.2485C13.6867 24.2441 13.3348 24.4201 12.8092 24.4672C12.2836 24.5143 11.6352 24.5 11.0606 24.5C10.2031 24.5 9.82536 24.0949 9.2217 23.3571C8.88741 22.9065 8.47989 22.5417 8.0842 22.2647C7.67903 21.9811 7.3334 21.7809 6.90568 21.7096L6.84826 21.7H6.78948C6.46281 21.7 6.14671 21.7237 5.85159 22.061C5.70403 22.2296 5.60232 22.5418 5.66839 22.8061C5.73445 23.0704 5.90163 23.2327 6.0512 23.3325C7.00791 23.9703 7.17698 25.2326 7.77659 26.3553C8.33653 27.471 9.54499 28 10.7803 28H12.6V31.3619C7.6775 29.6244 3.96531 25.3433 3.03245 20.0922C4.10408 19.8904 5.8986 19.6477 8.3385 19.6137ZM26.518 19.6192C29.0119 19.6405 30.8568 19.8829 31.969 20.0881C31.0374 25.3411 27.3239 29.6239 22.4 31.3619V27.7198C22.4 26.6106 22.0358 25.3874 21.402 24.3674C21.2095 24.0577 20.9832 23.7648 20.7307 23.502C22.3513 23.1818 23.6827 22.6092 24.7188 21.808C25.5058 21.1995 26.1013 20.4543 26.518 19.6192ZM16.5895 23.8698H18.55C19.119 23.8698 19.7263 24.3232 20.2125 25.1057C20.6987 25.8882 21 26.939 21 27.7198V31.7789C19.8782 32.0525 18.7067 32.2 17.5 32.2C16.2934 32.2 15.1218 32.0525 14 31.7789V27.7198C14 26.9562 14.3275 25.9079 14.8463 25.1221C15.3651 24.3363 16.0205 23.8698 16.5895 23.8698ZM8.61604 24.6969C9.22208 25.3255 9.95579 25.9 11.0606 25.9C11.606 25.9 12.2868 25.9197 12.9336 25.8617C12.9359 25.8615 12.9382 25.8606 12.9405 25.8604C12.8552 26.1054 12.7916 26.3519 12.7381 26.6H10.7803C9.91697 26.6 9.30707 26.2881 9.0262 25.7264L9.02074 25.7168L9.01663 25.7086C8.90155 25.4949 8.75047 25.0674 8.61604 24.6969Z" fill="#7AA160"/>
<path d="M17.5254 1.40039C26.8487 2.36661 34.5903 8.87774 34.5986 17.9854C33.6135 27.4572 26.3298 33.6282 17.54 34.5967C12.602 34.1113 8.09522 32.79 4.94922 30.1982C1.91688 27.7 0.105263 23.9873 0.439453 18.5645L0.478516 18.0342L0.479492 18.0166V18C0.479492 8.8468 8.1 1.40806 17.5254 1.40039Z" stroke="black" stroke-width="0.8"/>
<path d="M12.6596 33.7944C12.6596 33.1754 12.5143 31.9243 12.4212 30.3863C12.3942 29.9394 12.3292 29.2844 12.1112 28.4584C11.7954 27.2624 10.1684 28.2877 9.57753 28.1599C9.07823 28.052 8.80715 27.5542 8.32972 27.2431C7.62106 26.7813 7.41065 26.3075 7.26362 25.8664C7.11659 25.4253 6.89743 24.9859 6.62154 24.5448C6.37167 24.1453 6.16393 23.737 6.03342 23.1505C5.92581 22.6669 5.79498 22.3416 5.79443 22.14C5.79383 21.9203 6.16063 21.8636 6.43486 21.8085C6.81108 21.733 7.15183 21.8625 7.35338 22.0271C7.7604 22.3596 8.10449 22.6709 8.58303 22.89C9.03172 23.0955 9.46355 23.1841 9.72181 23.5139C9.99823 23.867 10.4548 23.9925 10.8958 24.1202C11.7731 24.3229 12.9526 24.1048 13.3006 23.938C13.3931 23.8834 13.4658 23.7744 13.5407 23.6621" stroke="black" stroke-linecap="round"/>
<path d="M13.3861 23.5332C13.2904 23.4613 13.074 23.3172 12.8871 23.2444C12.7396 23.1869 12.5922 23.1481 12.4475 23.058C12.2712 22.9482 12.0265 22.9314 11.7142 22.8292C11.0938 22.6261 10.8944 22.7385 10.7498 22.6366C10.6102 22.5383 10.4371 22.4502 10.2742 22.3356C10.0977 22.2113 9.95526 22.1129 9.8106 22.0164C9.6602 21.9162 9.54564 21.7639 9.41922 21.6193C9.30967 21.4939 9.13674 21.2597 9.00381 21.0354C8.8841 20.8333 8.6556 20.6449 8.49811 20.4634C8.35247 20.2955 8.18529 20.1984 8.04063 20.1079C7.78406 19.9474 7.37761 20.137 6.89954 20.0239C5.72478 19.7461 5.52456 20.0532 5.33167 20.0774C5.13833 20.1017 5.00657 20.1977 4.83192 20.2459C4.64871 20.2965 4.42862 20.3061 4.26011 20.3483C4.00217 20.413 3.82683 20.4383 3.31011 20.4569C3.20003 20.4608 3.16436 20.439 3.13402 20.415C3.0027 20.311 2.94727 20.198 2.89308 20.1621C2.77728 20.0853 2.75474 19.8856 2.74805 19.573C2.74458 19.4106 3.05455 19.416 3.19922 19.3373C3.34373 19.2586 3.48801 19.2108 3.63268 19.1027C3.75489 19.0113 3.92147 19.0064 4.07806 18.9518C4.27239 18.8842 4.64174 18.9096 4.89694 18.8736C5.05611 18.8512 5.22186 18.7897 5.42649 18.7532C5.64779 18.7137 5.90817 18.6452 6.16066 18.5968C6.69234 18.4948 7.38917 18.5238 7.55172 18.5783C7.60341 18.5957 7.67742 18.5845 7.6785 18.5845C7.88258 18.5845 7.25841 18.5007 6.50184 18.488C6.11053 18.4815 5.70517 18.5722 5.41041 18.6204C5.13815 18.665 4.94661 18.6928 4.75968 18.7588C4.59397 18.8172 4.42862 18.8973 3.34858 18.9036C2.96913 18.9058 2.80314 18.8135 2.65847 18.7293C2.58361 18.6858 2.5138 18.609 2.45962 18.4593C2.42434 18.3618 2.4412 18.2023 2.45908 18.1165C2.49833 17.9282 2.74173 17.8628 2.8622 17.7481C2.89029 17.7213 2.8985 17.6822 2.92252 17.6637C3.0303 17.5811 3.22288 17.5138 3.47537 17.4047C3.91838 17.2133 4.12592 17.4524 4.58268 17.4468C4.85207 17.4435 5.07737 17.3087 5.31198 17.2722C5.49333 17.244 5.66688 17.0681 5.83611 17.0193C6.02981 16.9635 6.26939 17.0067 6.41406 17.0372C6.45036 17.0432 6.48612 17.0551 6.64163 17.0612C6.79713 17.0674 7.0713 17.0674 7.38989 17.1396" stroke="black" stroke-linecap="round"/>
<path d="M7.59303 16.7207C7.58057 16.6456 7.53038 16.495 7.51132 16.1559C7.48525 15.692 7.50472 14.9854 7.5551 14.7967C7.60956 14.5928 7.69342 14.4193 7.77512 14.2056C7.83867 14.0393 7.91985 13.891 8.03288 13.7085C8.12228 13.5642 8.1712 13.4004 8.26574 13.2179C8.34656 13.0619 8.3599 12.872 8.35423 12.7022C8.34557 12.4423 8.24743 12.2433 8.22837 11.9853C8.21541 11.8098 8.15912 11.5149 8.1278 11.1498C8.0556 10.3082 8.05873 10.1548 7.98325 9.81663C7.77729 8.89389 8.09572 8.72068 8.17139 8.55066C8.23539 8.40685 8.39763 8.30554 8.46708 8.12307C8.53023 7.95711 8.67389 7.79002 8.84409 7.70114C9.01922 7.6097 9.20224 7.52509 9.39754 7.47471C9.55772 7.43339 9.83023 7.39904 10.0455 7.34903C10.2646 7.29816 10.4982 7.32281 10.806 7.36753C10.9882 7.39401 11.1768 7.51226 11.3664 7.54981C11.5227 7.58076 11.693 7.7002 11.8695 7.8138C12.0685 7.94193 12.2591 7.96513 12.4544 8.04023C12.629 8.10736 12.7626 8.21648 12.9075 8.27931C13.0587 8.34489 13.1777 8.44291 13.3289 8.52462C13.478 8.60523 13.6061 8.60633 13.6312 8.64426C13.6557 8.6814 13.6815 8.5316 13.7253 8.46254C13.8294 8.2983 14.0706 8.34253 14.2471 8.27365C14.4535 8.19308 14.6616 8.16666 14.9383 8.12251C15.4365 8.04298 15.618 8.05344 15.8193 7.97796C15.9952 7.91204 16.172 7.95268 16.4779 7.93381C17.7045 7.85814 17.8823 7.96513 18.0839 8.02778C18.2778 8.08807 18.9096 8.07835 19.2917 8.1159C19.4621 8.13264 19.7806 8.19157 20.0463 8.28554C20.2271 8.34947 20.4109 8.39234 20.5749 8.51821C20.7385 8.56896 20.9143 8.59387 21.0655 8.64426C21.1034 8.6569 21.1408 8.66935 21.217 8.68218" stroke="black" stroke-linecap="round"/>
<path d="M21.4812 8.64443C21.5812 8.61952 21.8073 8.54404 21.9712 8.48743C22.1392 8.42944 22.3107 8.36818 22.4619 8.26741C22.6166 8.16429 22.8013 8.12891 23.0151 8.0723C23.1923 8.02538 23.3297 7.94021 23.4808 7.85228C23.6378 7.76093 23.7826 7.65113 23.9337 7.55659C24.0706 7.47097 24.2354 7.42469 24.4241 7.3677C24.606 7.31277 24.988 7.32355 25.2733 7.29222C25.5182 7.26533 25.8439 7.24807 26.0849 7.31694C26.2396 7.36118 26.2741 7.57414 26.3681 7.6817C26.4859 7.8165 26.5753 8.0021 26.6513 8.15325C26.7283 8.30617 26.7768 8.51763 26.8338 8.71915C26.8866 8.90591 26.9783 9.05881 27.0287 9.24751C27.0792 9.43656 27.1044 9.81134 27.0731 10.0904C27.0491 10.3041 27.0289 10.6544 26.9976 10.9707C26.9664 11.2858 26.8908 11.4613 26.8717 12.2204C26.8642 12.52 26.7655 12.6946 26.6894 12.833C26.6097 12.978 26.7391 13.1973 26.8461 13.3802C26.9231 13.5119 27.0161 13.6502 27.0978 13.8142C27.1698 13.9587 27.2546 14.0661 27.3306 14.2542C27.3949 14.4133 27.4312 14.5688 27.5129 14.7199C27.5897 14.862 27.6199 15.0217 27.639 15.2041C27.6452 15.2485 27.6577 15.2858 27.6641 15.6102C27.6705 15.9346 27.6705 16.5448 27.595 17.249" stroke="black" stroke-linecap="round"/>
<path d="M27.757 17.3089C27.757 17.2985 27.757 17.2882 27.7674 17.2725C27.8616 17.1297 28.1803 17.1941 28.2587 17.1522C28.3538 17.1014 28.4834 17.0686 28.872 17.0605C28.9753 17.0583 29.188 17.0736 29.486 17.071C29.6082 17.0699 29.6447 17.0475 30.0514 17.0318C30.4371 17.017 31.1881 17.0265 31.5826 17.0317C32.0304 17.0376 32.1335 17.0736 32.2123 17.0892C32.2821 17.103 32.3534 17.1413 32.4163 17.1676C32.479 17.1939 32.5417 17.2251 32.5941 17.2747C32.6553 17.3326 32.6936 17.387 32.7536 17.4368C32.8068 17.481 32.8294 17.57 32.8687 17.6381C32.9523 17.7831 32.8561 18.067 32.8193 18.1219C32.7765 18.1858 32.6835 18.2289 32.6233 18.271C32.5637 18.3127 32.537 18.3911 32.4795 18.4253C32.4158 18.4632 32.3541 18.5062 32.2912 18.5351C32.2199 18.5679 32.1294 18.5954 32.0507 18.6136C31.9579 18.635 31.8991 18.6685 31.8102 18.679C31.7707 18.6837 31.7369 18.7104 31.5657 18.7182C31.4154 18.7251 31.1357 18.7209 30.9813 18.7157C30.7267 18.7072 30.5813 18.6791 30.4845 18.6738C30.4458 18.6717 30.2571 18.6634 30.0457 18.6607C29.9424 18.6594 29.8596 18.6842 29.7837 18.7051C29.6845 18.7325 29.5355 18.7312 29.4621 18.7522C29.416 18.7653 29.3731 18.7731 29.1684 18.781C28.9793 18.7882 28.6167 18.7836 28.4223 18.7862C28.1546 18.7898 28.0397 18.8097 27.9639 18.8176C27.9453 18.8195 27.9299 18.8254 27.9193 18.8358C27.9087 18.8462 27.9035 18.8617 27.9242 18.8698C28.0607 18.9227 28.2267 18.8307 28.3345 18.8151C28.4777 18.7943 28.6139 18.789 28.7528 18.768C28.803 18.7604 28.8445 18.7419 29.0442 18.7262C29.2226 18.7122 29.5596 18.7209 29.7511 18.726C30.0483 18.7341 30.1724 18.773 30.2643 18.7992C30.3388 18.8205 30.4237 18.8357 30.5256 18.849C30.6132 18.8604 30.7165 18.8881 30.8107 18.896C30.9309 18.9061 31.0984 18.9298 31.182 18.9535C31.2881 18.9836 31.4686 18.9719 31.5978 19.0005C31.6706 19.0166 31.7519 19.0553 31.8357 19.0686C31.9204 19.082 32.034 19.0974 32.2041 19.1495C32.318 19.1844 32.3848 19.1862 32.4451 19.2123C32.5118 19.2412 32.521 19.3324 32.568 19.4083C32.6227 19.4966 32.6098 19.6462 32.623 19.7351C32.6262 19.7561 32.6308 19.7717 32.6283 19.7875C32.6258 19.8032 32.6154 19.8188 32.6023 19.8293C32.5769 19.8499 32.5422 19.8556 32.516 19.8712C32.4577 19.9061 32.4793 20.0381 32.4455 20.1273C32.4196 20.1955 32.3801 20.258 32.3382 20.3365C32.3162 20.3776 32.2963 20.4151 32.2729 20.4412C32.229 20.49 32.0673 20.478 31.9592 20.5066C31.8823 20.527 31.7999 20.5407 31.7264 20.5589C31.6571 20.5761 31.5907 20.6035 31.5199 20.6191C31.4243 20.6402 31.3083 20.6452 31.2141 20.6531C31.0476 20.6671 30.7749 20.6559 30.7041 20.6349C30.6286 20.6126 30.5552 20.5931 30.4272 20.5487C30.3135 20.5093 30.2258 20.4833 30.1368 20.4624C30.0219 20.4353 29.8966 20.4152 29.7708 20.3736C29.6404 20.3304 29.457 20.3628 29.1363 20.3656C28.9946 20.3668 28.934 20.3107 28.8451 20.2898C28.7645 20.2708 28.5173 20.2427 28.3587 20.2296C28.2436 20.2202 28.1395 20.2113 28.0371 20.1852C27.9477 20.1625 27.8621 20.1642 27.7548 20.146C27.6275 20.1244 27.5273 20.0754 27.3915 20.0753C27.2504 20.1015 27.0827 20.1118 26.7855 20.1146C26.7217 20.112 26.7062 20.1068 26.6588 20.1015" stroke="black" stroke-linecap="round"/>
<path d="M26.918 19.948C26.8394 19.9949 26.7133 20.184 26.5711 20.421C26.4147 20.6817 26.2868 20.8475 26.1918 21.0216C26.1054 21.1799 25.8925 21.2588 25.7259 21.4164C25.5431 21.5894 25.3551 21.7166 25.2046 21.8825C25.0587 22.0434 24.8964 22.127 24.7466 22.2381C24.5715 22.3681 24.4073 22.5222 24.1782 22.6803C23.9975 22.8049 23.7912 22.8701 23.6014 22.9883C23.3784 23.1273 23.2225 23.2966 23.0327 23.3599C22.8327 23.4266 22.6065 23.4388 22.4167 23.502C22.2217 23.567 22.0378 23.6757 21.848 23.7783C21.6072 23.9085 21.279 23.8497 21.2314 23.889C21.0891 24.0065 21.4681 24.2586 21.5624 24.4968C21.6464 24.7089 21.815 24.8757 21.8944 25.0655C21.9716 25.25 22.0207 25.4756 22.084 25.6815C22.1459 25.8831 22.1629 26.1078 22.2261 26.2976C22.2894 26.4874 22.3212 26.7391 22.3683 26.9611C22.4538 27.3636 22.4472 28.0034 22.542 28.2797C22.5858 28.4075 22.5738 28.5252 22.5974 28.956C22.6055 30.0592 22.6211 30.8473 22.6448 31.2703C22.6529 31.6463 22.6529 32.3501 22.6529 33.0752" stroke="black" stroke-linecap="round"/>
<path d="M25.3295 26.9189C25.4316 26.7817 25.707 26.4403 25.9473 25.9921C26.1734 25.5704 26.462 25.1674 26.7555 24.7373C27.0685 24.2785 27.0479 23.6553 27.2026 23.2071C27.351 22.7774 27.5286 22.3825 27.7354 21.9864C27.7865 21.8884 27.9061 21.8316 27.9587 21.8647C28.3043 22.0815 28.525 22.5165 28.887 22.7404C29.2886 22.9887 29.1789 23.6161 29.3347 24.1659C29.4374 24.5285 29.2501 24.8889 29.0443 25.1293C28.7082 25.5218 28.2197 25.7822 27.8576 26.0921C27.7464 26.1874 27.805 26.4671 27.8561 26.5728C28.0128 26.8974 28.56 26.4382 28.7153 26.3521C29.1181 26.1286 27.6709 27.3975 27.085 27.777C26.5127 28.1478 26.2599 28.5341 25.8468 28.826C25.4865 29.0806 25.0902 29.3923 24.7292 29.7198C24.5487 29.8835 24.5043 30.1154 24.4873 30.219C24.3375 31.1314 24.265 27.6429 24.1778 26.973C24.1081 26.4368 23.8875 25.9575 23.7653 25.5795C23.7 25.3778 23.6791 25.0983 23.8323 24.8404C24.0712 24.4382 24.6074 24.5485 24.8813 24.3067C25.196 24.0287 25.5337 23.6883 25.8612 23.3103C26.2085 22.9094 26.7715 22.795 27.2016 22.4846C27.3144 22.4032 27.4584 22.3474 27.5626 22.3634C28.1053 22.4467 28.1825 23.4098 28.3032 23.9255C28.4215 24.4312 28.4239 24.8198 28.3558 25.0777C28.3275 25.185 28.1516 25.1654 28.0304 25.1313C27.5388 24.9933 27.2563 24.4454 26.9293 24.1009C26.8496 24.0169 26.8767 23.8616 26.8767 23.8936C26.8767 24.5113 26.9798 26.0132 26.8432 27.1571C26.7786 27.6978 26.362 28.0184 26.1562 28.1216C26.0584 28.1706 25.9504 28.1566 25.8638 28.0885C25.3615 27.6939 25.3295 26.3423 25.3295 25.4284C25.3295 25.2974 25.3295 25.842 25.3805 26.1566C25.4316 26.4712 25.5337 26.5393 25.7225 26.4382C26.7116 25.9085 27.2521 25.6481 27.7003 25.5609C28.1331 25.4768 28.525 25.2004 28.9381 25.0287C29.4769 24.8047 29.7627 24.2721 30.0046 23.9291C30.2996 23.5109 30.6581 23.3108 30.967 22.9833C31.043 22.9027 31.0706 22.795 31.0371 22.7254C30.6261 22.5867 30.2125 22.3825 29.8014 22.1916C29.6297 22.1741 29.3914 22.1741 29.0428 22.2772" stroke="#7AA160" stroke-width="2" stroke-linecap="round"/>
<path d="M3.56541 14.4381C3.49733 14.4381 3.42822 14.336 3.35963 14.2323C3.18036 13.9614 3.18789 14.8496 3.1358 15.0214C3.02886 15.374 3.87279 15.3313 4.62834 15.3834C4.90828 15.4027 5.17966 15.4696 5.45455 15.4185C6.19704 15.2806 5.83258 13.648 6.05744 13.305C6.48348 12.6552 6.17915 11.4489 6.1611 9.92282C6.15594 9.48612 6.24723 9.21368 6.24723 9.04091C6.24723 8.59453 6.07601 10.0337 5.88725 10.6026C5.68667 11.207 5.21782 11.7872 4.92437 12.3561C4.70871 12.7741 4.46072 13.2663 4.30497 13.7145C4.27046 13.8138 4.28744 13.9203 4.35551 14.0069C4.51381 14.2084 4.83618 14.3339 5.00844 14.4205C5.39187 14.6134 4.42772 13.3427 4.23638 12.8063C3.99593 12.1323 4.18223 11.0363 4.40709 10.5206C4.64471 9.97556 4.83618 9.28486 5.11158 8.78305C5.3108 8.42004 5.38698 9.58914 5.54119 9.70982C5.61057 9.76412 5.72943 9.66031 5.78204 9.54014C6.01239 9.01396 6.00587 8.56076 6.19463 8.16468C6.43621 7.65775 6.83104 7.323 7.17401 7.01253C7.53677 6.68413 7.69129 6.39364 7.74235 6.2219C7.86509 5.80906 8.61755 5.77579 9.13277 5.58497C10.0084 5.26065 10.9507 5.36114 11.5748 5.61798C12.174 5.86461 12.5371 6.15125 13.9776 6.20334C14.9447 6.23831 16.0441 6.35754 17.6558 6.35857C19.1075 6.3595 21.0983 6.05017 21.5114 5.96301C22.8508 5.68041 25.0881 5.77476 25.1402 5.586C25.2454 5.2047 24.267 5.15691 23.7838 4.94907C23.301 4.74143 22.7177 4.64118 22.0659 4.48491C21.4585 4.33932 20.4217 4.12338 19.3515 4.03777C17.3598 3.87843 16.8734 3.84901 16.2901 3.72833C14.9746 3.45614 14.3979 4.05324 13.8822 4.17444C13.2751 4.3171 12.8507 4.60404 11.9745 4.63911C11.6157 4.65347 12.8115 4.74226 14.1792 4.91349C16.8835 5.25203 18.8301 4.91452 19.0359 4.8289C19.4697 4.64843 19.6904 4.43385 19.8271 4.27913C20.011 4.07089 20.3773 4.19249 20.5661 4.08986C20.6632 4.03707 20.7208 3.91915 20.7559 3.78145C20.791 3.64375 20.791 3.47355 20.7399 3.38588C20.5484 3.05708 17.9255 3.19506 16.4093 3.31471C15.6604 3.3738 15.2231 3.77887 14.6393 3.95061C13.6768 4.23375 12.6155 4.53597 11.9048 4.62158C11.7838 4.63616 11.648 4.63911 11.6289 4.65613C11.2543 4.99029 12.8476 4.7763 13.9384 4.82787C14.9261 4.87457 16.7992 4.84541 17.8317 4.81137C19.3966 4.75978 20.0669 4.36474 22.1236 4.36371C22.99 4.36328 23.3676 4.87842 23.8147 5.03417C24.3696 5.22746 24.8116 5.22293 25.2247 5.37765C25.6505 5.5371 26.0494 5.70359 26.5311 5.82479C26.9487 5.92987 27.2872 6.15125 27.5976 6.49421C27.9187 6.84891 27.9762 7.31887 28.2165 7.73198C28.5187 8.25146 28.8694 8.93416 28.888 9.38233C28.9074 9.85128 29.3852 10.207 29.7632 10.5175C30.1214 10.8116 30.3816 11.1023 30.6235 11.4112C30.8654 11.7203 31.0706 12.0636 31.2769 12.5448C31.5782 13.2476 31.5183 13.7821 31.7751 14.1787C31.9355 14.4264 31.8617 14.7465 31.9133 14.9523C31.9389 15.0542 31.9308 15.158 31.5224 15.2107C31.1139 15.2633 30.297 15.2633 29.8762 15.1271C29.0007 14.8439 29.0097 14.0276 28.8369 13.6145C28.6598 13.191 28.6652 12.6866 28.6301 11.0384C28.6166 10.4031 28.6642 12.4773 28.7668 12.683C29.0057 13.1621 29.6245 13.2684 30.0381 13.5603C30.5814 13.9437 31.0015 13.8873 31.1392 13.9394C31.4398 14.0531 30.4558 13.1694 29.921 12.6861C29.5933 12.39 29.6967 11.8615 29.6616 11.2251C29.6616 11.1704 29.6616 11.3065 29.6786 11.4448C29.6956 11.583 29.7297 11.7191 29.8679 11.9626" stroke="#7AA160" stroke-width="2" stroke-linecap="round"/>
<path d="M7.69127 29.7038C7.34985 29.3614 6.52571 28.8127 6.0765 28.4501C5.99032 28.3805 5.97284 28.2619 5.90425 28.1922C5.83565 28.1226 5.73354 28.0886 5.62988 28.071C5.52621 28.0535 5.4241 28.0535 5.40553 28.1046C5.35052 28.2558 5.59326 28.4651 5.74746 28.6368C6.03585 28.958 6.45247 28.8787 6.62421 28.9297C6.98734 29.0377 7.27662 29.3593 7.68972 29.6512C8.0412 29.8996 8.58246 30.1825 8.94502 30.5966C9.23905 30.9324 9.75215 31.0097 10.0967 31.3186C10.2908 31.4927 10.5784 31.4914 10.7671 31.4749C10.867 31.4661 10.9218 31.2882 10.9399 31.167C11.0057 30.725 10.6145 30.4269 10.5624 30.2382C10.5389 30.1532 10.6805 30.0834 10.7501 29.9973C10.8197 29.9112 10.8538 29.8091 10.5479 29.7565C8.87839 29.4693 8.51851 29.3944 8.10541 29.2062C7.69191 29.0177 7.28074 28.8106 6.86764 28.6559C6.44441 28.4974 6.31735 27.9524 6.05897 27.5393C5.80995 27.1412 5.56025 26.6466 5.50816 26.1984C5.45575 25.7475 5.04452 25.3737 4.71857 25.1319C4.35063 24.8588 4.32249 24.2742 4.2704 23.4836C4.2315 22.8932 4.11619 22.2793 4.0641 21.9683C4.00423 21.6109 3.80675 22.859 3.7887 23.6331C3.78747 23.6858 3.87483 23.3108 3.87483 23.2226C3.87483 22.036 4.1492 25.0251 4.40655 25.4392C4.46501 25.5333 4.5948 25.5429 4.6474 25.6285C4.8946 26.0308 4.90527 26.334 5.05999 26.5388C5.60434 27.2591 5.45504 27.8451 5.79904 28.2582C6.08642 28.6034 6.38337 28.9798 6.7614 29.2046C7.14982 29.4357 7.44784 29.7038 7.89602 29.9091C8.12087 30.0121 8.30912 30.1845 8.41278 30.2877C8.43767 30.3124 8.31222 30.3227 8.20855 30.2376C7.68748 29.8099 7.38389 29.4295 6.88518 29.1035C6.40102 28.7871 5.83669 28.6043 5.42358 28.4326C4.94669 28.2343 4.59892 27.9173 4.18582 27.659C4.08746 27.5974 3.98004 27.5728 3.99551 27.5553C4.01098 27.5378 4.14714 27.5378 4.21728 27.3676C4.28742 27.1974 4.28742 26.857 4.23636 26.6476C4.11199 26.1376 3.53238 25.9926 3.37663 25.5625C3.20417 25.0862 3.08472 24.5836 2.7758 24.3067C2.45495 24.019 2.43077 23.3129 2.25955 22.7775C2.1564 22.2783 2.01818 21.9689 1.98415 21.7631C1.95011 21.6594 1.88203 21.5573 1.81189 21.4521" stroke="#7AA160" stroke-width="2" stroke-linecap="round"/>
<path d="M23.4881 31.1081C23.4821 31.0714 23.4697 30.9859 23.5155 30.7573C23.5532 30.5694 23.5249 30.1894 23.528 29.9832C23.532 29.7088 23.5617 29.539 23.5801 29.4152C23.5857 29.3769 23.5985 29.1411 23.6016 28.7886C23.6037 28.5439 23.5985 28.4219 23.5833 28.3142C23.5621 28.1649 23.5253 28.0903 23.4882 27.9983C23.4526 27.9097 23.4513 27.784 23.436 27.6519C23.4081 27.4106 23.4024 27.3357 23.3656 27.1588C23.295 26.8195 23.3411 26.5505 23.3074 26.4802C23.2144 26.286 23.2308 26.0843 23.1815 25.9984C23.1136 25.8802 23.1263 25.7898 23.0987 25.7161C23.0693 25.6376 23.0464 25.5083 23.0312 25.3728C23.0139 25.2194 22.9669 25.1214 22.9086 25.0139C22.8585 24.9214 22.8319 24.8513 22.7798 24.802C22.7075 24.7338 22.7398 24.6304 22.6847 24.5873C22.6567 24.5653 22.6418 24.5259 22.6111 24.4984C22.5964 24.4852 22.5926 24.4648 22.6168 24.4554C22.7612 24.3994 22.8436 24.3849 22.9784 24.3694C23.0683 24.359 23.1867 24.3172 23.2884 24.2836C23.377 24.2544 23.4388 24.2071 23.494 24.1426C23.5516 24.0752 23.6534 24.1207 23.7668 24.1241C23.8407 24.1263 23.8926 24.0474 23.9725 24.0077C24.063 23.9628 23.9972 23.8205 24.0368 23.7929C24.1466 23.7165 24.2302 23.7103 24.3129 23.6701C24.3964 23.6296 24.4631 23.5568 24.5827 23.5412C24.6695 23.5299 24.7392 23.4769 24.8557 23.4615C24.9453 23.4497 25.0152 23.3849 25.1042 23.3573C25.1835 23.3327 25.2055 23.2318 25.218 23.1579C25.219 23.1523 25.218 23.206 25.1968 23.2279C25.1755 23.2498 25.133 23.2498 25.1081 23.2407C25.0831 23.2316 25.0771 23.2134 25.0831 23.1979C25.112 23.1231 25.1993 23.0783 25.2547 23.0108C25.326 22.924 25.5243 22.9311 25.589 22.8666C25.6512 22.8047 25.6965 22.6075 25.7515 22.4893C25.7924 22.4012 25.9049 22.3852 25.9876 22.2962C26.056 22.2227 26.15 22.1949 26.23 22.1152C26.2964 22.049 26.3712 22.0171 26.4263 21.974C26.4893 21.9247 26.5549 21.7967 26.6379 21.7012C26.7177 21.6093 26.782 21.5508 26.8587 21.4803C26.9547 21.3921 27.0334 21.2873 27.0828 21.2073C27.1332 21.1257 27.2052 21.0723 27.3184 21.0445C27.5731 20.982 27.6285 20.974 27.8122 20.9708C27.9443 20.9685 28.064 21.0473 28.1439 21.0934C28.2121 21.1327 28.3153 21.1334 28.4442 21.164C28.6538 21.2137 28.7327 21.2008 28.9439 21.2161C29.1242 21.2292 29.34 21.2744 29.4229 21.2959C29.5392 21.3261 29.6282 21.3296 29.7082 21.3694C29.8354 21.4328 30.0578 21.4032 30.162 21.4125C30.2484 21.4202 30.3154 21.5074 30.4044 21.5229C30.4934 21.5385 30.5915 21.5504 30.6682 21.575C30.812 21.621 31.0148 21.6056 31.1613 21.6272C31.4167 21.6303 31.5978 21.6121 31.6405 21.5845C31.671 21.5751 31.7196 21.5751 31.7697 21.5567" stroke="#7AA160" stroke-linecap="round"/>
<path d="M23.7909 31.1141C23.7909 31.1836 23.7678 31.3352 23.753 31.4721C23.7409 31.5841 23.6859 31.6849 23.6511 31.7783C23.6147 31.8761 23.5579 31.9531 23.5229 32.0231C23.4852 32.0985 23.453 32.1629 23.4092 32.2359C23.3856 32.2752 23.3829 32.3205 23.377 32.3323C23.3616 32.3635 23.4233 32.222 23.4873 32.1463C23.5586 32.062 23.7776 32.0759 23.913 32.0382C23.9958 32.0152 24.0528 31.9769 24.1373 31.9536C24.2112 31.9332 24.2917 31.907 24.3793 31.8604C24.467 31.8138 24.5134 31.7265 24.5775 31.6739C24.6451 31.6183 24.7173 31.5747 24.7844 31.5456C24.8927 31.4987 24.9505 31.3128 25.0262 31.2194C25.0447 31.1966 25.0554 31.1729 25.0672 31.1697C25.0789 31.1664 25.0904 31.1837 25.0935 31.2013C25.0995 31.2358 25.079 31.2713 25.0732 31.2889C25.0534 31.3484 25.2009 31.1785 25.3058 31.1521C25.4477 31.1164 25.5216 31.1085 25.5917 31.0764C25.6727 31.0391 25.7315 30.9512 25.8015 30.8928C25.86 30.8441 25.9238 30.7938 25.9967 30.7326C26.0719 30.6695 26.1511 30.648 26.2095 30.5985C26.2737 30.544 26.361 30.5315 26.4542 30.4819C26.5335 30.4398 26.5767 30.3161 26.6263 30.243C26.6773 30.1678 26.7631 30.1003 26.8186 30.0303C26.8765 29.9573 26.9495 29.8789 27.0197 29.8175C27.0373 29.7855 27.0663 29.7562 27.1157 29.7387C27.1421 29.7327 27.1709 29.7327 27.2181 29.7502" stroke="#7AA160" stroke-linecap="round"/>
<path d="M27.2182 29.7502C27.1659 29.756 27.1077 29.8023 27.0291 29.8811C27.0112 29.899 26.9912 29.9017 26.9823 29.9364C26.9734 29.9711 26.9734 30.0346 26.9734 30.0528C26.9734 30.0711 26.9734 30.0423 26.9878 30.0274C27.0534 29.9599 27.1479 29.966 27.2034 29.9136C27.2535 29.8664 27.3053 29.8261 27.3753 29.7854C27.447 29.7437 27.4976 29.6747 27.5531 29.6077C27.6221 29.5246 27.7015 29.4533 27.7804 29.3949C27.8788 29.322 27.9813 29.261 28.066 29.1909C28.1223 29.1444 28.168 29.0746 28.2437 28.9871C28.36 28.8524 28.4069 28.7829 28.4479 28.7246C28.4862 28.6702 28.5468 28.6371 28.5849 28.5789C28.6319 28.5072 28.6926 28.4391 28.7538 28.3836C28.8156 28.3275 28.85 28.2468 28.9866 28.11C29.0485 28.048 29.0889 28.0076 29.1589 27.9785C29.2616 27.9358 29.3337 27.8096 29.4037 27.757C29.47 27.7072 29.5029 27.6348 29.5553 27.5793C29.6058 27.5257 29.6543 27.4599 29.7068 27.3956C29.763 27.3268 29.8409 27.3256 29.8556 27.3197C29.9415 27.2849 29.7481 27.4592 29.6898 27.5147C29.6364 27.5655 29.5907 27.6341 29.5411 27.6983C29.4941 27.7593 29.4218 27.8149 29.3546 27.8645C29.2882 27.9135 29.2525 27.9838 29.2001 28.0248C29.1426 28.0698 29.107 28.1471 29.0805 28.2083C29.0494 28.2802 28.9787 28.3335 28.9291 28.3978C28.8812 28.4599 28.7923 28.4968 28.7368 28.558C28.6697 28.6135 28.5999 28.6832 28.5589 28.7533C28.5473 28.7708 28.53 28.7882 28.4772 28.8235" stroke="#7AA160" stroke-linecap="round"/>
</svg>
